# xmcd
#
# Track frame offsets:
#	150
#	11921
#	26198
#	43479
#	54873
#	70002
#	80158
#	90705
#	102853
#	116085
#	130883
#	141960
#	154949
#	164125
#	174103
#
# Disc length: 2431 seconds
#
# Revision: 0
# Processed by: cddbd v1.5.2PL0 Copyright (c) Steve Scherf et al.
# Submitted via: audiograbber 1.83.01
#
DISCID=d4097d0f
DTITLE=Dubliners - Seven Drunken Nights [CD 1) - The Holy Ground
DYEAR=1999
DGENRE=Folk
TTITLE0=Take It Down From The Mast [live]
TTITLE1=The Lark In The Morning
TTITLE2=McAlpines Fusiliers [live]
TTITLE3=Finnegans Wake [live]
TTITLE4=Alabama
TTITLE5=The Holy Ground [live]
TTITLE6=The Scholar/Tteatotaller
TTITLE7=Farewell To Carlingford
TTITLE8=Dicey Reilly [live]
TTITLE9=Home Boys Home [live]
TTITLE10=Lord Of The Dance
TTITLE11=Kid On The Mountains
TTITLE12=The Molly Maguires [mono]
TTITLE13=Monto [live]
TTITLE14=Saxon Schilling [mono]
EXTD=
EXTT0=
EXTT1=
EXTT2=
EXTT3=
EXTT4=
EXTT5=
EXTT6=
EXTT7=
EXTT8=
EXTT9=
EXTT10=
EXTT11=
EXTT12=
EXTT13=
EXTT14=
PLAYORDER=
